<svg xmlns="http://www.w3.org/2000/svg" viewBox="0 0 532.6738230760353 117.1428373163752"><g transform="matrix(1,0,0,1,137.1538230760354,16.189784317965028)"><svg viewBox="0 0 395.5199999999999 84.76326868044515" height="84.76326868044515" width="395.5199999999999"><g><svg viewBox="0 0 395.5199999999999 84.76326868044515" height="84.76326868044515" width="395.5199999999999"><g><svg viewBox="0 0 395.5199999999999 84.76326868044515" height="84.76326868044515" width="395.5199999999999"><g transform="matrix(1,0,0,1,0,0)"><svg width="395.5199999999999" viewBox="3.6500000953674316 -33.70000076293945 157.24000549316406 33.70000076293945" height="84.76326868044515" data-palette-color="#0080ff"><g class="undefined-text-0" data-fill-palette-color="primary" id="text-0"><path d="M8.9-29.3L8.9-4.35 14.2-4.35Q19.95-4.35 22.95-7.95 25.95-11.55 25.95-17.2L25.95-17.2Q25.95-22.4 22.7-25.85 19.45-29.3 14.05-29.3L14.05-29.3 8.9-29.3ZM3.65 0L3.65-33.7 14.15-33.7Q21.65-33.7 26.45-29.05 31.25-24.4 31.25-17.2L31.25-17.2Q31.25-9.7 26.73-4.85 22.2 0 14.25 0L14.25 0 3.65 0ZM42.15-29.45L42.15-16.2 46.55-16.2Q50.2-16.2 52.12-18 54.05-19.8 54.05-22.75L54.05-22.75Q54.05-25.85 52.1-27.65 50.15-29.45 46.45-29.45L46.45-29.45 42.15-29.45ZM37 0L37-33.7 46.65-33.7Q52.45-33.7 55.85-30.63 59.25-27.55 59.25-22.75 59.25-17.95 55.82-14.95 52.4-11.95 46.95-11.95L46.95-11.95 42.15-11.95 42.15 0 37 0ZM79-21.25L82.45-33.2 87-33.2 90.55-21.2 95.09-5.35Q96.95-14.45 98.55-21.2L98.55-21.2 101.5-33.7 106.7-33.7 98.45 0 92.3 0 89.09-10.65 84.75-25.7Q83.59-20.95 80.55-10.65L80.55-10.65 77.45 0 71.25 0 62.4-33.7 67.75-33.7 70.9-21.25 74.59-5.45Q76.84-13.85 79-21.25L79-21.25ZM116.99-14.7L116.99-4.3 131.29-4.3 131.29 0 111.84 0 111.84-33.7 131.04-33.7 131.04-29.4 116.99-29.4 116.99-19 129.44-19 129.44-14.7 116.99-14.7ZM142.69-14.9L142.69-4.25 149.29-4.25Q155.64-4.25 155.64-9.5L155.64-9.5Q155.64-12.05 153.92-13.48 152.19-14.9 148.79-14.9L148.79-14.9 142.69-14.9ZM148.19-29.45L142.69-29.45 142.69-19.1 147.34-19.1Q151.09-19.1 152.92-20.63 154.74-22.15 154.74-24.6L154.74-24.6Q154.74-26.75 153.12-28.1 151.49-29.45 148.19-29.45L148.19-29.45ZM137.54 0L137.54-33.7 148.59-33.7Q153.89-33.7 156.94-31.23 159.99-28.75 159.99-24.7L159.99-24.7Q159.99-21.9 158.42-19.8 156.84-17.7 154.39-17.1L154.39-17.1Q157.14-16.6 159.02-14.55 160.89-12.5 160.89-9.05L160.89-9.05Q160.89-5.05 158.17-2.53 155.44 0 150.49 0L150.49 0 137.54 0Z" fill="#0080ff" data-fill-palette-color="primary"/></g></svg></g></svg></g></svg></g></svg></g><g><svg viewBox="0 0 117.14324965903062 117.1428373163752" height="117.1428373163752" width="117.14324965903062"><g><svg xmlns="http://www.w3.org/2000/svg" xmlns:xlink="http://www.w3.org/1999/xlink" version="1.1" x="0" y="0" viewBox="7.734947204589844 7.735245704650879 84.53054809570312 84.5302505493164" enable-background="new 0 0 100 100" xml:space="preserve" height="117.1428373163752" width="117.14324965903062" class="icon-icon-0" data-fill-palette-color="accent" id="icon-0"><g fill="#0023ff" data-fill-palette-color="accent"><g fill="#0023ff" data-fill-palette-color="accent"><g fill="#0023ff" data-fill-palette-color="accent"><path d="M28.368 14.767C42.162 16.327 48.04 25.762 49.69 30.695c1.07 3.198 1.472 5.094 1.472 9.275 0 0.817 0.044 2.076-1.054 2.216-0.77 0.099-1.209-0.509-1.273-1.182-0.289-3.026-1.159-6.569-4.008-9.85-2.253-2.594-7.472-7.802-16.652-7.021-2.669 0.228-5.052-1.868-5.129-4.564C22.964 16.703 25.531 14.446 28.368 14.767z" fill="#0023ff" data-fill-palette-color="accent"/><path d="M71.633 85.232c-13.794-1.561-19.671-10.995-21.322-15.929-1.07-3.198-1.472-5.094-1.472-9.275 0-0.817-0.044-2.076 1.054-2.216 0.77-0.099 1.209 0.509 1.273 1.182 0.289 3.026 1.159 6.569 4.008 9.85 2.253 2.594 7.472 7.802 16.652 7.021 2.669-0.228 5.052 1.868 5.129 4.564C77.037 83.296 74.47 85.553 71.633 85.232z" fill="#0023ff" data-fill-palette-color="accent"/></g><g fill="#0023ff" data-fill-palette-color="accent"><path d="M14.768 71.633c1.56-13.794 10.995-19.672 15.928-21.322 3.198-1.07 5.094-1.472 9.276-1.472 0.817 0 2.076-0.045 2.216 1.054 0.098 0.77-0.509 1.209-1.182 1.273-3.026 0.288-6.569 1.159-9.849 4.008-2.594 2.254-7.802 7.473-7.021 16.652 0.228 2.669-1.868 5.052-4.564 5.129C16.704 77.036 14.447 74.47 14.768 71.633z" fill="#0023ff" data-fill-palette-color="accent"/><path d="M85.233 28.367c-1.56 13.794-10.995 19.672-15.928 21.322-3.198 1.07-5.094 1.472-9.276 1.472-0.817 0-2.076 0.045-2.216-1.054-0.098-0.77 0.509-1.209 1.182-1.273 3.026-0.288 6.569-1.159 9.849-4.008 2.594-2.254 7.802-7.473 7.021-16.652-0.228-2.669 1.868-5.052 4.564-5.129C83.297 22.964 85.554 25.53 85.233 28.367z" fill="#0023ff" data-fill-palette-color="accent"/></g></g><g fill="#0023ff" data-fill-palette-color="accent"><g fill="#0023ff" data-fill-palette-color="accent"><path d="M13.65 30.304c12.726-5.546 22.533-0.314 26.43 3.133 2.526 2.234 3.821 3.676 5.912 7.297 0.409 0.708 1.077 1.775 0.195 2.446-0.617 0.47-1.302 0.164-1.693-0.387-1.763-2.477-4.289-5.109-8.396-6.525-3.249-1.12-10.373-3.021-17.931 2.246-2.198 1.531-5.309 0.907-6.724-1.389C9.938 34.682 11.033 31.444 13.65 30.304z" fill="#0023ff" data-fill-palette-color="accent"/><path d="M86.351 69.695c-12.726 5.546-22.533 0.314-26.43-3.133-2.526-2.234-3.821-3.676-5.912-7.297-0.409-0.708-1.077-1.775-0.196-2.446 0.618-0.47 1.302-0.164 1.694 0.387 1.763 2.477 4.289 5.109 8.396 6.525 3.249 1.12 10.373 3.021 17.931-2.245 2.198-1.532 5.309-0.908 6.724 1.388C90.063 65.317 88.968 68.555 86.351 69.695z" fill="#0023ff" data-fill-palette-color="accent"/></g><g fill="#0023ff" data-fill-palette-color="accent"><path d="M30.304 86.351c-5.546-12.726-0.314-22.533 3.133-26.43 2.235-2.525 3.676-3.821 7.298-5.912 0.708-0.409 1.775-1.076 2.445-0.195 0.47 0.617 0.164 1.302-0.387 1.693-2.477 1.764-5.109 4.289-6.525 8.396-1.12 3.248-3.021 10.372 2.246 17.931 1.531 2.198 0.908 5.31-1.389 6.725C34.683 90.062 31.445 88.968 30.304 86.351z" fill="#0023ff" data-fill-palette-color="accent"/><path d="M69.696 13.649c5.546 12.726 0.314 22.533-3.133 26.43-2.234 2.526-3.675 3.821-7.297 5.913-0.708 0.408-1.775 1.076-2.446 0.195-0.47-0.618-0.163-1.303 0.388-1.694 2.477-1.763 5.109-4.288 6.525-8.396 1.12-3.249 3.021-10.372-2.246-17.932-1.532-2.198-0.908-5.309 1.388-6.724C65.318 9.938 68.556 11.032 69.696 13.649z" fill="#0023ff" data-fill-palette-color="accent"/></g></g><g fill="#0023ff" data-fill-palette-color="accent"><g fill="#0023ff" data-fill-palette-color="accent"><path d="M8.671 51.118c8.248-11.166 19.357-11.539 24.456-10.502 3.305 0.672 5.147 1.272 8.769 3.363 0.708 0.408 1.82 0.999 1.392 2.021-0.299 0.716-1.045 0.793-1.66 0.512-2.765-1.263-6.269-2.28-10.533-1.453-3.374 0.654-10.494 2.57-14.406 10.911-1.138 2.425-4.144 3.44-6.518 2.159C7.646 56.766 6.976 53.414 8.671 51.118z" fill="#0023ff" data-fill-palette-color="accent"/><path d="M91.329 48.882C83.081 60.047 71.971 60.42 66.874 59.383c-3.305-0.672-5.147-1.272-8.769-3.363-0.708-0.408-1.82-0.999-1.393-2.021 0.3-0.716 1.046-0.793 1.66-0.512 2.766 1.264 6.269 2.28 10.534 1.453 3.373-0.654 10.493-2.569 14.406-10.91 1.138-2.426 4.144-3.441 6.517-2.16C92.354 43.233 93.025 46.585 91.329 48.882z" fill="#0023ff" data-fill-palette-color="accent"/></g><g fill="#0023ff" data-fill-palette-color="accent"><path d="M51.119 91.329C39.953 83.081 39.58 71.972 40.617 66.874c0.673-3.305 1.272-5.147 3.364-8.77 0.409-0.708 1-1.819 2.02-1.392 0.716 0.3 0.793 1.045 0.512 1.66-1.263 2.765-2.28 6.269-1.453 10.533 0.654 3.374 2.57 10.493 10.911 14.406 2.425 1.138 3.44 4.144 2.159 6.518C56.766 92.354 53.415 93.025 51.119 91.329z" fill="#0023ff" data-fill-palette-color="accent"/><path d="M48.882 8.672c11.166 8.247 11.538 19.356 10.501 24.455-0.672 3.305-1.271 5.147-3.362 8.77-0.409 0.707-1 1.819-2.021 1.392-0.716-0.3-0.792-1.046-0.511-1.661 1.263-2.765 2.28-6.268 1.453-10.533-0.655-3.373-2.57-10.492-10.911-14.406-2.426-1.137-3.44-4.144-2.159-6.517C43.234 7.646 46.585 6.976 48.882 8.672z" fill="#0023ff" data-fill-palette-color="accent"/></g></g></g></svg></g></svg></g></svg>